# xmcd
#
# Track frame offsets:
#	150
#	10066
#	26372
#	44549
#	61089
#	77640
#	100237
#	113009
#	127575
#	141076
#	163944
#
# Disc length: 2435 seconds
#
# Revision: 0
# Processed by: cddbd v1.5.2PL0 Copyright (c) Steve Scherf et al.
# Submitted via: audiograbber 1.83.01
#
DISCID=7e09810b
DTITLE=Bob Christensen - Rear View
DYEAR=1900
DGENRE=
TTITLE0=It's Not Time Now
TTITLE1=Another Man
TTITLE2=Stumbling To Gloryland
TTITLE3=Dead Man
TTITLE4=It Ain't Going To Get Any Better
TTITLE5=Corrymeela
TTITLE6=These Friends of Mine
TTITLE7=Miss Epiphone
TTITLE8=Small Town Country Boy
TTITLE9=Dance The Night Away
TTITLE10=Jenny Lynn
EXTD=
EXTT0=
EXTT1=
EXTT2=
EXTT3=
EXTT4=
EXTT5=
EXTT6=
EXTT7=
EXTT8=
EXTT9=
EXTT10=
PLAYORDER=
